<svg width="279" height="290" viewBox="0 0 279 290" fill="none" xmlns="http://www.w3.org/2000/svg">
<rect width="278.502" height="289.722" fill="white"/>
<path d="M208.421 177.67L208.426 177.67C211.26 177.515 212.473 176.617 213.101 175.596C213.822 174.424 214.019 172.727 214.019 170.458V67.4079C214.019 65.2873 213.599 63.9613 212.998 63.2216C212.472 62.575 211.617 62.1475 210.043 62.2894L210.02 62.2915L209.996 62.2929L96.1581 68.9043C94.2848 69.0637 93.3744 69.5797 92.8608 70.2437C92.297 70.9729 91.9484 72.2074 91.9484 74.3748V178.121C91.9484 180.685 92.5895 182.051 93.5668 182.823C94.6155 183.651 96.4265 184.107 99.4688 183.941L208.421 177.67ZM208.421 177.67L99.473 183.941L208.421 177.67ZM85.4391 50.2288L85.4324 50.2234L85.4257 50.2181L71.8334 39.4886C71.7405 39.3875 71.6939 39.3111 71.6712 39.2648C71.7261 39.2092 71.854 39.105 72.1181 38.99C72.4702 38.8365 73.0028 38.6921 73.759 38.616L169.734 31.6537L169.745 31.6529L169.755 31.652C173.578 31.3209 176.418 31.8207 178.646 32.6518C180.885 33.4871 182.583 34.6837 184.123 35.8729L184.143 35.8885L184.164 35.9035L200.353 47.5438L102.624 53.3803L102.624 53.3802L102.614 53.3809C102.23 53.4064 101.858 53.4313 101.498 53.4554C96.8382 53.7673 94.1544 53.947 91.9901 53.6128C89.8214 53.278 88.1408 52.4121 85.4391 50.2288ZM65.4608 26.2259L65.4513 26.2266L65.4417 26.2275C61.0908 26.6021 57.9573 28.2309 55.9425 30.7975C53.9574 33.3262 53.2129 36.5692 53.2129 39.9027V148.525C53.2129 153.856 55.1599 158.341 59.4699 164.056L59.4758 164.063L59.4818 164.071L82.9539 194.36L82.9584 194.366L82.9629 194.372C85.0034 196.953 87.0554 198.647 89.6736 199.597C92.2398 200.529 95.2009 200.689 98.9321 200.512L98.9416 200.511L98.951 200.511L214.908 193.546L214.916 193.545L214.923 193.545C220.015 193.185 223.627 191.809 225.925 189.215C228.211 186.633 228.931 183.138 228.931 179.167V56.9638C228.931 54.5992 228.412 52.9179 227.029 51.3252C225.927 50.0558 224.262 48.8482 222.12 47.2953C221.855 47.1024 221.581 46.9042 221.301 46.7L221.289 46.6914L221.277 46.683L189.423 24.4152C189.42 24.4129 189.417 24.4106 189.414 24.4083C185.522 21.5974 182.607 19.8846 179.021 19.0762C175.486 18.2794 171.421 18.3913 165.302 18.913C165.299 18.9133 165.296 18.9135 165.293 18.9138L65.4608 26.2259Z" fill="black" stroke="white" stroke-width="3"/>
<path d="M170.974 95.6811L170.896 94.1831L170.974 95.6811C180.101 95.2053 187.462 102.165 187.462 111.235C187.462 120.367 180.005 128.193 170.818 128.671L160.211 129.224V96.2421L170.974 95.6811ZM202.226 110.745C202.226 92.9394 187.712 79.251 169.858 80.1817L117.566 82.9073C116.238 82.9766 115.196 84.0738 115.196 85.404V95.9011C115.196 97.333 116.397 98.4723 117.826 98.3978L124.973 98.0253V166.582C124.973 168.014 126.173 169.153 127.603 169.079L136.824 168.598C138.152 168.529 139.194 167.431 139.194 166.101V97.284L145.967 96.9309V165.487C145.967 166.919 147.167 168.058 148.597 167.984L157.815 167.504C159.143 167.435 160.185 166.337 160.185 165.007V145.048L170.014 144.519C170.015 144.519 170.015 144.519 170.016 144.519C187.809 143.59 202.226 128.489 202.226 110.745Z" fill="black" stroke="white" stroke-width="3"/>
<mask id="path-3-outside-1_15_10" maskUnits="userSpaceOnUse" x="17" y="229.384" width="245" height="44" fill="black">
<rect fill="white" x="17" y="229.384" width="245" height="44"/>
<path d="M49.156 248.806C49.7083 248.806 50.156 249.254 50.156 249.806V251.46C50.156 252.013 49.7083 252.46 49.156 252.46H24.99C24.4377 252.46 23.99 252.013 23.99 251.46V249.806C23.99 249.254 24.4377 248.806 24.99 248.806H49.156ZM52.81 261.574C53.3623 261.574 53.81 262.022 53.81 262.574V264.228C53.81 264.781 53.3623 265.228 52.81 265.228H21C20.4477 265.228 20 264.781 20 264.228V262.574C20 262.022 20.4477 261.574 21 261.574H52.81ZM38.152 250.99C38.7043 250.99 39.152 251.438 39.152 251.99V261.624C39.152 262.177 38.7043 262.624 38.152 262.624H35.616C35.0637 262.624 34.616 262.177 34.616 261.624V251.99C34.616 251.438 35.0637 250.99 35.616 250.99H38.152ZM27.484 235.366C28.0363 235.366 28.484 235.814 28.484 236.366V249.36C28.484 249.913 28.0363 250.36 27.484 250.36H24.99C24.4377 250.36 23.99 249.913 23.99 249.36V236.366C23.99 235.814 24.4377 235.366 24.99 235.366H27.484ZM83.261 237.466C83.8133 237.466 84.261 237.914 84.261 238.466V240.162C84.261 240.715 83.8133 241.162 83.261 241.162H77.407C76.8547 241.162 76.407 240.715 76.407 240.162V238.466C76.407 237.914 76.8547 237.466 77.407 237.466H83.261ZM83.261 244.9C83.8133 244.9 84.261 245.348 84.261 245.9V247.512C84.261 248.065 83.8133 248.512 83.261 248.512H77.407C76.8547 248.512 76.407 248.065 76.407 247.512V245.9C76.407 245.348 76.8547 244.9 77.407 244.9H83.261ZM68.225 234.442C68.7773 234.442 69.225 234.89 69.225 235.442V238.978C69.225 241.554 68.833 243.934 68.049 246.118C67.265 248.302 66.103 250.22 64.563 251.872C63.2186 253.341 61.5974 254.478 59.6995 255.283C59.2787 255.461 58.796 255.305 58.5373 254.928L57.3054 253.134C56.9379 252.599 57.1711 251.863 57.7584 251.586C59.1883 250.913 60.4345 250.057 61.497 249.016C62.841 247.672 63.849 246.146 64.521 244.438C65.221 242.702 65.571 240.882 65.571 238.978V235.442C65.571 234.89 66.0187 234.442 66.571 234.442H68.225ZM69.107 234.442C69.6593 234.442 70.107 234.89 70.107 235.442V238.978C70.107 240.77 70.443 242.492 71.115 244.144C71.787 245.796 72.767 247.28 74.055 248.596C75.0531 249.594 76.2193 250.408 77.5536 251.036C78.1492 251.316 78.3869 252.066 78.0086 252.605L76.7326 254.421C76.4676 254.799 75.9772 254.949 75.5569 254.759C73.7918 253.962 72.2552 252.859 70.947 251.452C69.491 249.828 68.385 247.952 67.629 245.824C66.873 243.696 66.495 241.414 66.495 238.978V235.442C66.495 234.89 66.9427 234.442 67.495 234.442H69.107ZM86.705 232.426C87.2573 232.426 87.705 232.874 87.705 233.426V259.146C87.705 259.699 87.2573 260.146 86.705 260.146H84.169C83.6167 260.146 83.169 259.699 83.169 259.146V233.426C83.169 232.874 83.6167 232.426 84.169 232.426H86.705ZM87.545 265.354C88.0973 265.354 88.545 265.802 88.545 266.354V268.008C88.545 268.561 88.0973 269.008 87.545 269.008H64.303C63.7507 269.008 63.303 268.561 63.303 268.008V266.354C63.303 265.802 63.7507 265.354 64.303 265.354H87.545ZM66.797 257.5C67.3493 257.5 67.797 257.948 67.797 258.5V266.538C67.797 267.091 67.3493 267.538 66.797 267.538H64.303C63.7507 267.538 63.303 267.091 63.303 266.538V258.5C63.303 257.948 63.7507 257.5 64.303 257.5H66.797ZM110.302 232.972C114.502 232.972 117.778 233.532 120.13 234.652C122.482 235.744 123.658 237.312 123.658 239.356C123.658 241.428 122.482 243.024 120.13 244.144C117.778 245.236 114.502 245.782 110.302 245.782C106.074 245.782 102.784 245.236 100.432 244.144C98.108 243.024 96.946 241.428 96.946 239.356C96.946 237.312 98.108 235.744 100.432 234.652C102.784 233.532 106.074 232.972 110.302 232.972ZM110.302 236.29C107.446 236.29 105.276 236.556 103.792 237.088C102.336 237.62 101.608 238.39 101.608 239.398C101.608 240.406 102.336 241.176 103.792 241.708C105.248 242.212 107.418 242.464 110.302 242.464C113.186 242.464 115.356 242.212 116.812 241.708C118.268 241.176 118.996 240.406 118.996 239.398C118.996 238.39 118.254 237.62 116.77 237.088C115.286 236.556 113.13 236.29 110.302 236.29ZM126.144 247.882C126.696 247.882 127.144 248.33 127.144 248.882V250.452C127.144 251.005 126.696 251.452 126.144 251.452H94.418C93.8657 251.452 93.418 251.005 93.418 250.452V248.882C93.418 248.33 93.8657 247.882 94.418 247.882H126.144ZM121.944 254.014C122.496 254.014 122.944 254.462 122.944 255.014V262.086C122.944 262.639 122.496 263.086 121.944 263.086H102.902C102.35 263.086 101.902 263.534 101.902 264.086V265.908C101.902 266.461 101.454 266.908 100.902 266.908H98.45C97.8977 266.908 97.45 266.461 97.45 265.908V260.936C97.45 260.384 97.8977 259.936 98.45 259.936H117.534C118.086 259.936 118.534 259.489 118.534 258.936V258.416C118.534 257.864 118.086 257.416 117.534 257.416H98.366C97.8137 257.416 97.366 256.969 97.366 256.416V255.014C97.366 254.462 97.8137 254.014 98.366 254.014H121.944ZM123.036 265.984C123.588 265.984 124.036 266.432 124.036 266.984V268.428C124.036 268.981 123.588 269.428 123.036 269.428H98.45C97.8977 269.428 97.45 268.981 97.45 268.428V266.984C97.45 266.432 97.8977 265.984 98.45 265.984H123.036ZM172.617 261.616C173.169 261.616 173.617 262.064 173.617 262.616V264.312C173.617 264.865 173.169 265.312 172.617 265.312H140.807C140.255 265.312 139.807 264.865 139.807 264.312V262.616C139.807 262.064 140.255 261.616 140.807 261.616H172.617ZM157.875 252.628C158.427 252.628 158.875 253.076 158.875 253.628V262.296C158.875 262.849 158.427 263.296 157.875 263.296H155.381C154.829 263.296 154.381 262.849 154.381 262.296V253.628C154.381 253.076 154.829 252.628 155.381 252.628H157.875ZM169.719 235.66C170.271 235.66 170.719 236.108 170.719 236.66V238.272C170.719 238.825 170.271 239.272 169.719 239.272H143.579C143.027 239.272 142.579 238.825 142.579 238.272V236.66C142.579 236.108 143.027 235.66 143.579 235.66H169.719ZM169.593 250.57C170.145 250.57 170.593 251.018 170.593 251.57V253.182C170.593 253.735 170.145 254.182 169.593 254.182H143.747C143.195 254.182 142.747 253.735 142.747 253.182V251.57C142.747 251.018 143.195 250.57 143.747 250.57H169.593ZM151.491 238.6C152.043 238.6 152.491 239.048 152.491 239.6V250.074C152.491 250.627 152.043 251.074 151.491 251.074H148.955C148.403 251.074 147.955 250.627 147.955 250.074V239.6C147.955 239.048 148.403 238.6 148.955 238.6H151.491ZM164.301 238.6C164.853 238.6 165.301 239.048 165.301 239.6V250.074C165.301 250.627 164.853 251.074 164.301 251.074H161.807C161.255 251.074 160.807 250.627 160.807 250.074V239.6C160.807 239.048 161.255 238.6 161.807 238.6H164.301ZM181.094 257.374C184.762 257.374 187.856 257.304 190.376 257.164C192.562 257.043 194.78 256.816 197.029 256.484C197.593 256.401 198.117 256.797 198.183 257.363L198.372 258.991C198.434 259.521 198.069 260.006 197.542 260.087C195.174 260.451 192.827 260.695 190.502 260.818C187.898 260.958 184.762 261.028 181.094 261.028H179.112C178.56 261.028 178.112 260.581 178.112 260.028V258.374C178.112 257.822 178.56 257.374 179.112 257.374H181.094ZM194.542 235.618C195.094 235.618 195.542 236.066 195.542 236.618V238.314C195.542 238.867 195.094 239.314 194.542 239.314H183.606C183.054 239.314 182.606 239.762 182.606 240.314V257.592C182.606 258.145 182.158 258.592 181.606 258.592H179.112C178.56 258.592 178.112 258.145 178.112 257.592V236.618C178.112 236.066 178.56 235.618 179.112 235.618H194.542ZM193.912 246.034C194.464 246.034 194.912 246.482 194.912 247.034V248.562C194.912 249.115 194.464 249.562 193.912 249.562H182.514C181.962 249.562 181.514 249.115 181.514 248.562V247.034C181.514 246.482 181.962 246.034 182.514 246.034H193.912ZM204.58 232.384C205.132 232.384 205.58 232.832 205.58 233.384V268.722C205.58 269.275 205.132 269.722 204.58 269.722H202.044C201.492 269.722 201.044 269.275 201.044 268.722V233.384C201.044 232.832 201.492 232.384 202.044 232.384H204.58ZM210.25 246.916C210.802 246.916 211.25 247.364 211.25 247.916V249.654C211.25 250.207 210.802 250.654 210.25 250.654H205.53C204.978 250.654 204.53 250.207 204.53 249.654V247.916C204.53 247.364 204.978 246.916 205.53 246.916H210.25ZM246.035 261.7C246.587 261.7 247.035 262.148 247.035 262.7V264.354C247.035 264.907 246.587 265.354 246.035 265.354H214.225C213.673 265.354 213.225 264.907 213.225 264.354V262.7C213.225 262.148 213.673 261.7 214.225 261.7H246.035ZM231.335 254.224C231.887 254.224 232.335 254.672 232.335 255.224V262.212C232.335 262.765 231.887 263.212 231.335 263.212H228.841C228.289 263.212 227.841 262.765 227.841 262.212V255.224C227.841 254.672 228.289 254.224 228.841 254.224H231.335ZM242.087 234.904C242.639 234.904 243.087 235.352 243.087 235.904V245.874C243.087 246.427 242.639 246.874 242.087 246.874H222.751C222.199 246.874 221.751 247.322 221.751 247.874V252.636C221.751 253.189 221.303 253.636 220.751 253.636H218.257C217.705 253.636 217.257 253.189 217.257 252.636V244.304C217.257 243.752 217.705 243.304 218.257 243.304H237.635C238.187 243.304 238.635 242.857 238.635 242.304V239.516C238.635 238.964 238.187 238.516 237.635 238.516H218.215C217.663 238.516 217.215 238.069 217.215 237.516V235.904C217.215 235.352 217.663 234.904 218.215 234.904H242.087ZM242.927 251.872C243.479 251.872 243.927 252.32 243.927 252.872V254.484C243.927 255.037 243.479 255.484 242.927 255.484H218.257C217.705 255.484 217.257 255.037 217.257 254.484V252.872C217.257 252.32 217.705 251.872 218.257 251.872H242.927ZM257.817 257.287C257.801 257.827 257.358 258.256 256.818 258.256H254.639C254.1 258.256 253.658 257.829 253.639 257.29L252.909 235.77C252.89 235.205 253.343 234.736 253.909 234.736H257.471C258.035 234.736 258.488 235.203 258.471 235.767L257.817 257.287ZM255.73 262.162C256.542 262.162 257.172 262.414 257.62 262.918C258.096 263.394 258.334 263.996 258.334 264.724C258.334 265.48 258.096 266.096 257.62 266.572C257.172 267.076 256.542 267.328 255.73 267.328C254.918 267.328 254.274 267.076 253.798 266.572C253.35 266.096 253.126 265.48 253.126 264.724C253.126 263.996 253.35 263.394 253.798 262.918C254.274 262.414 254.918 262.162 255.73 262.162Z"/>
</mask>
<path d="M49.156 248.806C49.7083 248.806 50.156 249.254 50.156 249.806V251.46C50.156 252.013 49.7083 252.46 49.156 252.46H24.99C24.4377 252.46 23.99 252.013 23.99 251.46V249.806C23.99 249.254 24.4377 248.806 24.99 248.806H49.156ZM52.81 261.574C53.3623 261.574 53.81 262.022 53.81 262.574V264.228C53.81 264.781 53.3623 265.228 52.81 265.228H21C20.4477 265.228 20 264.781 20 264.228V262.574C20 262.022 20.4477 261.574 21 261.574H52.81ZM38.152 250.99C38.7043 250.99 39.152 251.438 39.152 251.99V261.624C39.152 262.177 38.7043 262.624 38.152 262.624H35.616C35.0637 262.624 34.616 262.177 34.616 261.624V251.99C34.616 251.438 35.0637 250.99 35.616 250.99H38.152ZM27.484 235.366C28.0363 235.366 28.484 235.814 28.484 236.366V249.36C28.484 249.913 28.0363 250.36 27.484 250.36H24.99C24.4377 250.36 23.99 249.913 23.99 249.36V236.366C23.99 235.814 24.4377 235.366 24.99 235.366H27.484ZM83.261 237.466C83.8133 237.466 84.261 237.914 84.261 238.466V240.162C84.261 240.715 83.8133 241.162 83.261 241.162H77.407C76.8547 241.162 76.407 240.715 76.407 240.162V238.466C76.407 237.914 76.8547 237.466 77.407 237.466H83.261ZM83.261 244.9C83.8133 244.9 84.261 245.348 84.261 245.9V247.512C84.261 248.065 83.8133 248.512 83.261 248.512H77.407C76.8547 248.512 76.407 248.065 76.407 247.512V245.9C76.407 245.348 76.8547 244.9 77.407 244.9H83.261ZM68.225 234.442C68.7773 234.442 69.225 234.89 69.225 235.442V238.978C69.225 241.554 68.833 243.934 68.049 246.118C67.265 248.302 66.103 250.22 64.563 251.872C63.2186 253.341 61.5974 254.478 59.6995 255.283C59.2787 255.461 58.796 255.305 58.5373 254.928L57.3054 253.134C56.9379 252.599 57.1711 251.863 57.7584 251.586C59.1883 250.913 60.4345 250.057 61.497 249.016C62.841 247.672 63.849 246.146 64.521 244.438C65.221 242.702 65.571 240.882 65.571 238.978V235.442C65.571 234.89 66.0187 234.442 66.571 234.442H68.225ZM69.107 234.442C69.6593 234.442 70.107 234.89 70.107 235.442V238.978C70.107 240.77 70.443 242.492 71.115 244.144C71.787 245.796 72.767 247.28 74.055 248.596C75.0531 249.594 76.2193 250.408 77.5536 251.036C78.1492 251.316 78.3869 252.066 78.0086 252.605L76.7326 254.421C76.4676 254.799 75.9772 254.949 75.5569 254.759C73.7918 253.962 72.2552 252.859 70.947 251.452C69.491 249.828 68.385 247.952 67.629 245.824C66.873 243.696 66.495 241.414 66.495 238.978V235.442C66.495 234.89 66.9427 234.442 67.495 234.442H69.107ZM86.705 232.426C87.2573 232.426 87.705 232.874 87.705 233.426V259.146C87.705 259.699 87.2573 260.146 86.705 260.146H84.169C83.6167 260.146 83.169 259.699 83.169 259.146V233.426C83.169 232.874 83.6167 232.426 84.169 232.426H86.705ZM87.545 265.354C88.0973 265.354 88.545 265.802 88.545 266.354V268.008C88.545 268.561 88.0973 269.008 87.545 269.008H64.303C63.7507 269.008 63.303 268.561 63.303 268.008V266.354C63.303 265.802 63.7507 265.354 64.303 265.354H87.545ZM66.797 257.5C67.3493 257.5 67.797 257.948 67.797 258.5V266.538C67.797 267.091 67.3493 267.538 66.797 267.538H64.303C63.7507 267.538 63.303 267.091 63.303 266.538V258.5C63.303 257.948 63.7507 257.5 64.303 257.5H66.797ZM110.302 232.972C114.502 232.972 117.778 233.532 120.13 234.652C122.482 235.744 123.658 237.312 123.658 239.356C123.658 241.428 122.482 243.024 120.13 244.144C117.778 245.236 114.502 245.782 110.302 245.782C106.074 245.782 102.784 245.236 100.432 244.144C98.108 243.024 96.946 241.428 96.946 239.356C96.946 237.312 98.108 235.744 100.432 234.652C102.784 233.532 106.074 232.972 110.302 232.972ZM110.302 236.29C107.446 236.29 105.276 236.556 103.792 237.088C102.336 237.62 101.608 238.39 101.608 239.398C101.608 240.406 102.336 241.176 103.792 241.708C105.248 242.212 107.418 242.464 110.302 242.464C113.186 242.464 115.356 242.212 116.812 241.708C118.268 241.176 118.996 240.406 118.996 239.398C118.996 238.39 118.254 237.62 116.77 237.088C115.286 236.556 113.13 236.29 110.302 236.29ZM126.144 247.882C126.696 247.882 127.144 248.33 127.144 248.882V250.452C127.144 251.005 126.696 251.452 126.144 251.452H94.418C93.8657 251.452 93.418 251.005 93.418 250.452V248.882C93.418 248.33 93.8657 247.882 94.418 247.882H126.144ZM121.944 254.014C122.496 254.014 122.944 254.462 122.944 255.014V262.086C122.944 262.639 122.496 263.086 121.944 263.086H102.902C102.35 263.086 101.902 263.534 101.902 264.086V265.908C101.902 266.461 101.454 266.908 100.902 266.908H98.45C97.8977 266.908 97.45 266.461 97.45 265.908V260.936C97.45 260.384 97.8977 259.936 98.45 259.936H117.534C118.086 259.936 118.534 259.489 118.534 258.936V258.416C118.534 257.864 118.086 257.416 117.534 257.416H98.366C97.8137 257.416 97.366 256.969 97.366 256.416V255.014C97.366 254.462 97.8137 254.014 98.366 254.014H121.944ZM123.036 265.984C123.588 265.984 124.036 266.432 124.036 266.984V268.428C124.036 268.981 123.588 269.428 123.036 269.428H98.45C97.8977 269.428 97.45 268.981 97.45 268.428V266.984C97.45 266.432 97.8977 265.984 98.45 265.984H123.036ZM172.617 261.616C173.169 261.616 173.617 262.064 173.617 262.616V264.312C173.617 264.865 173.169 265.312 172.617 265.312H140.807C140.255 265.312 139.807 264.865 139.807 264.312V262.616C139.807 262.064 140.255 261.616 140.807 261.616H172.617ZM157.875 252.628C158.427 252.628 158.875 253.076 158.875 253.628V262.296C158.875 262.849 158.427 263.296 157.875 263.296H155.381C154.829 263.296 154.381 262.849 154.381 262.296V253.628C154.381 253.076 154.829 252.628 155.381 252.628H157.875ZM169.719 235.66C170.271 235.66 170.719 236.108 170.719 236.66V238.272C170.719 238.825 170.271 239.272 169.719 239.272H143.579C143.027 239.272 142.579 238.825 142.579 238.272V236.66C142.579 236.108 143.027 235.66 143.579 235.66H169.719ZM169.593 250.57C170.145 250.57 170.593 251.018 170.593 251.57V253.182C170.593 253.735 170.145 254.182 169.593 254.182H143.747C143.195 254.182 142.747 253.735 142.747 253.182V251.57C142.747 251.018 143.195 250.57 143.747 250.57H169.593ZM151.491 238.6C152.043 238.6 152.491 239.048 152.491 239.6V250.074C152.491 250.627 152.043 251.074 151.491 251.074H148.955C148.403 251.074 147.955 250.627 147.955 250.074V239.6C147.955 239.048 148.403 238.6 148.955 238.6H151.491ZM164.301 238.6C164.853 238.6 165.301 239.048 165.301 239.6V250.074C165.301 250.627 164.853 251.074 164.301 251.074H161.807C161.255 251.074 160.807 250.627 160.807 250.074V239.6C160.807 239.048 161.255 238.6 161.807 238.6H164.301ZM181.094 257.374C184.762 257.374 187.856 257.304 190.376 257.164C192.562 257.043 194.78 256.816 197.029 256.484C197.593 256.401 198.117 256.797 198.183 257.363L198.372 258.991C198.434 259.521 198.069 260.006 197.542 260.087C195.174 260.451 192.827 260.695 190.502 260.818C187.898 260.958 184.762 261.028 181.094 261.028H179.112C178.56 261.028 178.112 260.581 178.112 260.028V258.374C178.112 257.822 178.56 257.374 179.112 257.374H181.094ZM194.542 235.618C195.094 235.618 195.542 236.066 195.542 236.618V238.314C195.542 238.867 195.094 239.314 194.542 239.314H183.606C183.054 239.314 182.606 239.762 182.606 240.314V257.592C182.606 258.145 182.158 258.592 181.606 258.592H179.112C178.56 258.592 178.112 258.145 178.112 257.592V236.618C178.112 236.066 178.56 235.618 179.112 235.618H194.542ZM193.912 246.034C194.464 246.034 194.912 246.482 194.912 247.034V248.562C194.912 249.115 194.464 249.562 193.912 249.562H182.514C181.962 249.562 181.514 249.115 181.514 248.562V247.034C181.514 246.482 181.962 246.034 182.514 246.034H193.912ZM204.58 232.384C205.132 232.384 205.58 232.832 205.58 233.384V268.722C205.58 269.275 205.132 269.722 204.58 269.722H202.044C201.492 269.722 201.044 269.275 201.044 268.722V233.384C201.044 232.832 201.492 232.384 202.044 232.384H204.58ZM210.25 246.916C210.802 246.916 211.25 247.364 211.25 247.916V249.654C211.25 250.207 210.802 250.654 210.25 250.654H205.53C204.978 250.654 204.53 250.207 204.53 249.654V247.916C204.53 247.364 204.978 246.916 205.53 246.916H210.25ZM246.035 261.7C246.587 261.7 247.035 262.148 247.035 262.7V264.354C247.035 264.907 246.587 265.354 246.035 265.354H214.225C213.673 265.354 213.225 264.907 213.225 264.354V262.7C213.225 262.148 213.673 261.7 214.225 261.7H246.035ZM231.335 254.224C231.887 254.224 232.335 254.672 232.335 255.224V262.212C232.335 262.765 231.887 263.212 231.335 263.212H228.841C228.289 263.212 227.841 262.765 227.841 262.212V255.224C227.841 254.672 228.289 254.224 228.841 254.224H231.335ZM242.087 234.904C242.639 234.904 243.087 235.352 243.087 235.904V245.874C243.087 246.427 242.639 246.874 242.087 246.874H222.751C222.199 246.874 221.751 247.322 221.751 247.874V252.636C221.751 253.189 221.303 253.636 220.751 253.636H218.257C217.705 253.636 217.257 253.189 217.257 252.636V244.304C217.257 243.752 217.705 243.304 218.257 243.304H237.635C238.187 243.304 238.635 242.857 238.635 242.304V239.516C238.635 238.964 238.187 238.516 237.635 238.516H218.215C217.663 238.516 217.215 238.069 217.215 237.516V235.904C217.215 235.352 217.663 234.904 218.215 234.904H242.087ZM242.927 251.872C243.479 251.872 243.927 252.32 243.927 252.872V254.484C243.927 255.037 243.479 255.484 242.927 255.484H218.257C217.705 255.484 217.257 255.037 217.257 254.484V252.872C217.257 252.32 217.705 251.872 218.257 251.872H242.927ZM257.817 257.287C257.801 257.827 257.358 258.256 256.818 258.256H254.639C254.1 258.256 253.658 257.829 253.639 257.29L252.909 235.77C252.89 235.205 253.343 234.736 253.909 234.736H257.471C258.035 234.736 258.488 235.203 258.471 235.767L257.817 257.287ZM255.73 262.162C256.542 262.162 257.172 262.414 257.62 262.918C258.096 263.394 258.334 263.996 258.334 264.724C258.334 265.48 258.096 266.096 257.62 266.572C257.172 267.076 256.542 267.328 255.73 267.328C254.918 267.328 254.274 267.076 253.798 266.572C253.35 266.096 253.126 265.48 253.126 264.724C253.126 263.996 253.35 263.394 253.798 262.918C254.274 262.414 254.918 262.162 255.73 262.162Z" fill="black"/>
<path d="M49.156 248.806C49.7083 248.806 50.156 249.254 50.156 249.806V251.46C50.156 252.013 49.7083 252.46 49.156 252.46H24.99C24.4377 252.46 23.99 252.013 23.99 251.46V249.806C23.99 249.254 24.4377 248.806 24.99 248.806H49.156ZM52.81 261.574C53.3623 261.574 53.81 262.022 53.81 262.574V264.228C53.81 264.781 53.3623 265.228 52.81 265.228H21C20.4477 265.228 20 264.781 20 264.228V262.574C20 262.022 20.4477 261.574 21 261.574H52.81ZM38.152 250.99C38.7043 250.99 39.152 251.438 39.152 251.99V261.624C39.152 262.177 38.7043 262.624 38.152 262.624H35.616C35.0637 262.624 34.616 262.177 34.616 261.624V251.99C34.616 251.438 35.0637 250.99 35.616 250.99H38.152ZM27.484 235.366C28.0363 235.366 28.484 235.814 28.484 236.366V249.36C28.484 249.913 28.0363 250.36 27.484 250.36H24.99C24.4377 250.36 23.99 249.913 23.99 249.36V236.366C23.99 235.814 24.4377 235.366 24.99 235.366H27.484ZM83.261 237.466C83.8133 237.466 84.261 237.914 84.261 238.466V240.162C84.261 240.715 83.8133 241.162 83.261 241.162H77.407C76.8547 241.162 76.407 240.715 76.407 240.162V238.466C76.407 237.914 76.8547 237.466 77.407 237.466H83.261ZM83.261 244.9C83.8133 244.9 84.261 245.348 84.261 245.9V247.512C84.261 248.065 83.8133 248.512 83.261 248.512H77.407C76.8547 248.512 76.407 248.065 76.407 247.512V245.9C76.407 245.348 76.8547 244.9 77.407 244.9H83.261ZM68.225 234.442C68.7773 234.442 69.225 234.89 69.225 235.442V238.978C69.225 241.554 68.833 243.934 68.049 246.118C67.265 248.302 66.103 250.22 64.563 251.872C63.2186 253.341 61.5974 254.478 59.6995 255.283C59.2787 255.461 58.796 255.305 58.5373 254.928L57.3054 253.134C56.9379 252.599 57.1711 251.863 57.7584 251.586C59.1883 250.913 60.4345 250.057 61.497 249.016C62.841 247.672 63.849 246.146 64.521 244.438C65.221 242.702 65.571 240.882 65.571 238.978V235.442C65.571 234.89 66.0187 234.442 66.571 234.442H68.225ZM69.107 234.442C69.6593 234.442 70.107 234.89 70.107 235.442V238.978C70.107 240.77 70.443 242.492 71.115 244.144C71.787 245.796 72.767 247.28 74.055 248.596C75.0531 249.594 76.2193 250.408 77.5536 251.036C78.1492 251.316 78.3869 252.066 78.0086 252.605L76.7326 254.421C76.4676 254.799 75.9772 254.949 75.5569 254.759C73.7918 253.962 72.2552 252.859 70.947 251.452C69.491 249.828 68.385 247.952 67.629 245.824C66.873 243.696 66.495 241.414 66.495 238.978V235.442C66.495 234.89 66.9427 234.442 67.495 234.442H69.107ZM86.705 232.426C87.2573 232.426 87.705 232.874 87.705 233.426V259.146C87.705 259.699 87.2573 260.146 86.705 260.146H84.169C83.6167 260.146 83.169 259.699 83.169 259.146V233.426C83.169 232.874 83.6167 232.426 84.169 232.426H86.705ZM87.545 265.354C88.0973 265.354 88.545 265.802 88.545 266.354V268.008C88.545 268.561 88.0973 269.008 87.545 269.008H64.303C63.7507 269.008 63.303 268.561 63.303 268.008V266.354C63.303 265.802 63.7507 265.354 64.303 265.354H87.545ZM66.797 257.5C67.3493 257.5 67.797 257.948 67.797 258.5V266.538C67.797 267.091 67.3493 267.538 66.797 267.538H64.303C63.7507 267.538 63.303 267.091 63.303 266.538V258.5C63.303 257.948 63.7507 257.5 64.303 257.5H66.797ZM110.302 232.972C114.502 232.972 117.778 233.532 120.13 234.652C122.482 235.744 123.658 237.312 123.658 239.356C123.658 241.428 122.482 243.024 120.13 244.144C117.778 245.236 114.502 245.782 110.302 245.782C106.074 245.782 102.784 245.236 100.432 244.144C98.108 243.024 96.946 241.428 96.946 239.356C96.946 237.312 98.108 235.744 100.432 234.652C102.784 233.532 106.074 232.972 110.302 232.972ZM110.302 236.29C107.446 236.29 105.276 236.556 103.792 237.088C102.336 237.62 101.608 238.39 101.608 239.398C101.608 240.406 102.336 241.176 103.792 241.708C105.248 242.212 107.418 242.464 110.302 242.464C113.186 242.464 115.356 242.212 116.812 241.708C118.268 241.176 118.996 240.406 118.996 239.398C118.996 238.39 118.254 237.62 116.77 237.088C115.286 236.556 113.13 236.29 110.302 236.29ZM126.144 247.882C126.696 247.882 127.144 248.33 127.144 248.882V250.452C127.144 251.005 126.696 251.452 126.144 251.452H94.418C93.8657 251.452 93.418 251.005 93.418 250.452V248.882C93.418 248.33 93.8657 247.882 94.418 247.882H126.144ZM121.944 254.014C122.496 254.014 122.944 254.462 122.944 255.014V262.086C122.944 262.639 122.496 263.086 121.944 263.086H102.902C102.35 263.086 101.902 263.534 101.902 264.086V265.908C101.902 266.461 101.454 266.908 100.902 266.908H98.45C97.8977 266.908 97.45 266.461 97.45 265.908V260.936C97.45 260.384 97.8977 259.936 98.45 259.936H117.534C118.086 259.936 118.534 259.489 118.534 258.936V258.416C118.534 257.864 118.086 257.416 117.534 257.416H98.366C97.8137 257.416 97.366 256.969 97.366 256.416V255.014C97.366 254.462 97.8137 254.014 98.366 254.014H121.944ZM123.036 265.984C123.588 265.984 124.036 266.432 124.036 266.984V268.428C124.036 268.981 123.588 269.428 123.036 269.428H98.45C97.8977 269.428 97.45 268.981 97.45 268.428V266.984C97.45 266.432 97.8977 265.984 98.45 265.984H123.036ZM172.617 261.616C173.169 261.616 173.617 262.064 173.617 262.616V264.312C173.617 264.865 173.169 265.312 172.617 265.312H140.807C140.255 265.312 139.807 264.865 139.807 264.312V262.616C139.807 262.064 140.255 261.616 140.807 261.616H172.617ZM157.875 252.628C158.427 252.628 158.875 253.076 158.875 253.628V262.296C158.875 262.849 158.427 263.296 157.875 263.296H155.381C154.829 263.296 154.381 262.849 154.381 262.296V253.628C154.381 253.076 154.829 252.628 155.381 252.628H157.875ZM169.719 235.66C170.271 235.66 170.719 236.108 170.719 236.66V238.272C170.719 238.825 170.271 239.272 169.719 239.272H143.579C143.027 239.272 142.579 238.825 142.579 238.272V236.66C142.579 236.108 143.027 235.66 143.579 235.66H169.719ZM169.593 250.57C170.145 250.57 170.593 251.018 170.593 251.57V253.182C170.593 253.735 170.145 254.182 169.593 254.182H143.747C143.195 254.182 142.747 253.735 142.747 253.182V251.57C142.747 251.018 143.195 250.57 143.747 250.57H169.593ZM151.491 238.6C152.043 238.6 152.491 239.048 152.491 239.6V250.074C152.491 250.627 152.043 251.074 151.491 251.074H148.955C148.403 251.074 147.955 250.627 147.955 250.074V239.6C147.955 239.048 148.403 238.6 148.955 238.6H151.491ZM164.301 238.6C164.853 238.6 165.301 239.048 165.301 239.6V250.074C165.301 250.627 164.853 251.074 164.301 251.074H161.807C161.255 251.074 160.807 250.627 160.807 250.074V239.6C160.807 239.048 161.255 238.6 161.807 238.6H164.301ZM181.094 257.374C184.762 257.374 187.856 257.304 190.376 257.164C192.562 257.043 194.78 256.816 197.029 256.484C197.593 256.401 198.117 256.797 198.183 257.363L198.372 258.991C198.434 259.521 198.069 260.006 197.542 260.087C195.174 260.451 192.827 260.695 190.502 260.818C187.898 260.958 184.762 261.028 181.094 261.028H179.112C178.56 261.028 178.112 260.581 178.112 260.028V258.374C178.112 257.822 178.56 257.374 179.112 257.374H181.094ZM194.542 235.618C195.094 235.618 195.542 236.066 195.542 236.618V238.314C195.542 238.867 195.094 239.314 194.542 239.314H183.606C183.054 239.314 182.606 239.762 182.606 240.314V257.592C182.606 258.145 182.158 258.592 181.606 258.592H179.112C178.56 258.592 178.112 258.145 178.112 257.592V236.618C178.112 236.066 178.56 235.618 179.112 235.618H194.542ZM193.912 246.034C194.464 246.034 194.912 246.482 194.912 247.034V248.562C194.912 249.115 194.464 249.562 193.912 249.562H182.514C181.962 249.562 181.514 249.115 181.514 248.562V247.034C181.514 246.482 181.962 246.034 182.514 246.034H193.912ZM204.58 232.384C205.132 232.384 205.58 232.832 205.58 233.384V268.722C205.58 269.275 205.132 269.722 204.58 269.722H202.044C201.492 269.722 201.044 269.275 201.044 268.722V233.384C201.044 232.832 201.492 232.384 202.044 232.384H204.58ZM210.25 246.916C210.802 246.916 211.25 247.364 211.25 247.916V249.654C211.25 250.207 210.802 250.654 210.25 250.654H205.53C204.978 250.654 204.53 250.207 204.53 249.654V247.916C204.53 247.364 204.978 246.916 205.53 246.916H210.25ZM246.035 261.7C246.587 261.7 247.035 262.148 247.035 262.7V264.354C247.035 264.907 246.587 265.354 246.035 265.354H214.225C213.673 265.354 213.225 264.907 213.225 264.354V262.7C213.225 262.148 213.673 261.7 214.225 261.7H246.035ZM231.335 254.224C231.887 254.224 232.335 254.672 232.335 255.224V262.212C232.335 262.765 231.887 263.212 231.335 263.212H228.841C228.289 263.212 227.841 262.765 227.841 262.212V255.224C227.841 254.672 228.289 254.224 228.841 254.224H231.335ZM242.087 234.904C242.639 234.904 243.087 235.352 243.087 235.904V245.874C243.087 246.427 242.639 246.874 242.087 246.874H222.751C222.199 246.874 221.751 247.322 221.751 247.874V252.636C221.751 253.189 221.303 253.636 220.751 253.636H218.257C217.705 253.636 217.257 253.189 217.257 252.636V244.304C217.257 243.752 217.705 243.304 218.257 243.304H237.635C238.187 243.304 238.635 242.857 238.635 242.304V239.516C238.635 238.964 238.187 238.516 237.635 238.516H218.215C217.663 238.516 217.215 238.069 217.215 237.516V235.904C217.215 235.352 217.663 234.904 218.215 234.904H242.087ZM242.927 251.872C243.479 251.872 243.927 252.32 243.927 252.872V254.484C243.927 255.037 243.479 255.484 242.927 255.484H218.257C217.705 255.484 217.257 255.037 217.257 254.484V252.872C217.257 252.32 217.705 251.872 218.257 251.872H242.927ZM257.817 257.287C257.801 257.827 257.358 258.256 256.818 258.256H254.639C254.1 258.256 253.658 257.829 253.639 257.29L252.909 235.77C252.89 235.205 253.343 234.736 253.909 234.736H257.471C258.035 234.736 258.488 235.203 258.471 235.767L257.817 257.287ZM255.73 262.162C256.542 262.162 257.172 262.414 257.62 262.918C258.096 263.394 258.334 263.996 258.334 264.724C258.334 265.48 258.096 266.096 257.62 266.572C257.172 267.076 256.542 267.328 255.73 267.328C254.918 267.328 254.274 267.076 253.798 266.572C253.35 266.096 253.126 265.48 253.126 264.724C253.126 263.996 253.35 263.394 253.798 262.918C254.274 262.414 254.918 262.162 255.73 262.162Z" stroke="white" stroke-width="6" mask="url(#path-3-outside-1_15_10)"/>
</svg>
